<?xml version="1.0" encoding="UTF-8"?>
<svg width="34px" height="34px" viewBox="0 0 34 34" version="1.1" xmlns="http://www.w3.org/2000/svg" xmlns:xlink="http://www.w3.org/1999/xlink">
    <!-- Generator: Sketch 51.3 (57544) - http://www.bohemiancoding.com/sketch -->
    <title>loading-z</title>
    <desc>Created with Sketch.</desc>
    <defs></defs>
    <g id="Page-1" stroke="none" stroke-width="1" fill="none" fill-rule="evenodd">
        <g id="loading-z" transform="translate(1.000000, 1.000000)">
            <path d="M24.1631079,29.060116 C23.8393718,29.0884523 23.5156358,29.0955363 23.1884557,29.0919943 C22.4548836,29.0813682 21.7213115,28.9999015 20.9980714,28.8688465 C19.4758231,28.5925682 17.9983469,28.0896001 16.6000827,27.4130726 C14.6232263,26.4602668 12.8771181,25.0222031 11.5236258,23.2618148 C11.2067778,22.8509394 10.9140377,22.4223539 10.6419617,21.9796003 C9.3676815,19.8862613 8.37236534,17.2474497 8.70298939,14.7432353 C8.96817743,12.7278209 10.0289296,10.8859659 11.6407219,9.71355433 C12.8426781,8.83867319 14.2994903,8.36758335 15.7700785,8.36758335 C18.9523122,8.36758335 20.7759832,9.71355433 22.4280564,13.1155837 C21.4359228,11.3375964 20.0686292,8.08760719 13.2355891,6.44395778 C9.34595371,5.50832783 4.1050987,9.36346794 3.16786581,10.3777718 C2.23063293,11.3920757 0,14.2296411 0,15.7668817 C0,24.7317568 7.06364513,32 15.7804105,32 C16.0249346,32 16.2487946,31.9929159 16.4692106,31.9822899 C16.5415346,31.9787478 16.6138587,31.9752058 16.6861827,31.9716638 C16.8824907,31.9610377 17.0787987,31.9433275 17.2751068,31.9256174 C17.3956468,31.9149913 17.5161868,31.9008232 17.6401708,31.883113 C17.7124948,31.876029 17.7813748,31.8654029 17.8536989,31.8547768 C19.8856592,31.5289102 21.5077834,30.9338493 22.6925196,30.3635827 C23.5018598,29.9562493 24.2733159,29.4780754 25,28.9432291 C24.831244,29.0707421 24.3628599,29.0459479 24.1631079,29.060116 Z" id="light-blue" stroke="#1DB1E7"></path>
            <path d="M31.9963674,15.5874432 C32.1071707,11.0477116 29.6730731,6.55898818 26.073754,3.66172127 C25.8449989,3.47809168 25.6090952,3.29786263 25.3696171,3.12783523 C23.6396564,1.8866352 21.6559205,0.965086689 19.5542327,0.468606678 C19.2611402,0.400595718 17.3992846,-5.99520433e-15 16.1692264,-5.99520433e-15 C14.5602443,-5.70231599e-15 17.7648072,0.27164145 18.9355977,0.728554728 C20.7722904,1.44534327 21.6789706,2.53672257 22.3355126,3.12783523 C23.4105642,4.09574971 26.7634707,8.32304843 25.8059054,14.1739852 C24.8483402,20.024922 22.3350527,20.5157 21.4149671,21.2836914 C19.8239066,22.116838 18.6694983,22.8236569 16.8394573,22.9018695 C17.8867269,23.6907967 19.6400159,25.5102423 24.0221064,24.8845415 C28.5328717,24.2418379 31.7032749,20.2733983 31.9749216,16.070321 C31.9856445,15.9070947 31.9927931,15.7472689 31.9963674,15.5874432 Z" id="orange" stroke="#E75A25"></path>
            <path d="M21.9577732,2.69204825 C20.1157808,0.966011833 16.9959486,-0.170731345 14.419878,0.0210504799 C6.35861223,0.631265376 0,7.53541106 0,15.9598636 C0,18.0101856 0.377234611,19.9733341 1.06373363,21.7725963 C0.890409623,21.2181725 0.275279311,19.2166676 0.628724352,16.475931 C1.25065168,12.0998185 3.77914313,9.37302963 6.46396604,7.84923586 C9.23035319,6.2766249 14.7019543,5.13988172 19.4394773,9.37651657 C21.050371,10.6527374 22.6442722,13.4666999 22.6442722,15.935455 C22.6442722,19.3700931 20.3196914,22.2433335 17.1964607,23 C19.7691327,22.4141937 22.4675497,21.1031034 24.0070747,18.9656078 C27.4905475,14.1361928 26.154933,6.62531913 21.9577732,2.69204825 Z" id="dark-blue" stroke="#01519C"></path>
        </g>
    </g>
</svg>