<svg xmlns="http://www.w3.org/2000/svg" width="192" height="166" viewBox="0 0 192 166">
  <defs>
    <style>
      .cls-1 {
        opacity: 0.2;
      }

      .cls-2 {
        fill: #0087ce;
      }

      .cls-3 {
        fill: #ccd1e9;
      }

      .cls-4 {
        fill: #b3c5e5;
      }

      .cls-5 {
        fill: #a1b8e1;
      }

      .cls-6 {
        fill: #262f5e;
      }

      .cls-7 {
        fill: #dbedf9;
      }

      .cls-8 {
        fill: #2e5ba5;
      }

      .cls-9 {
        fill: #65b1e8;
      }

      .cls-10 {
        fill: #596273;
      }

      .cls-11 {
        fill: #da845d;
      }

      .cls-12 {
        fill: #898989;
      }

      .cls-13 {
        fill: #fff;
      }

      .cls-14 {
        fill: #d36e2b;
      }

      .cls-15 {
        fill: #64b1e8;
      }

      .cls-16 {
        fill: #f2d27b;
      }

      .cls-17 {
        fill: #bcdef4;
      }

      .cls-18 {
        fill: #9799ab;
      }

      .cls-19 {
        fill: #6798d3;
      }

      .cls-20 {
        fill: #1d2c50;
      }

      .cls-21 {
        fill: #f1ca53;
      }

      .cls-22 {
        fill: #d4af2f;
      }

      .cls-23 {
        fill: #f8f9fa;
      }

      .cls-24 {
        fill: #ebc0a3;
      }

      .cls-25 {
        fill: #1a2444;
      }

      .cls-26 {
        fill: #693719;
      }

      .cls-27 {
        fill: #e4aa9e;
      }

      .cls-28 {
        fill: #25180d;
      }

      .cls-29 {
        fill: #2a4272;
      }

      .cls-30 {
        fill: #131b30;
      }

      .cls-31 {
        fill: #edc5a3;
      }

      .cls-32 {
        fill: #c33c33;
      }

      .cls-33 {
        fill: #4c151b;
      }

      .cls-34 {
        fill: #374d97;
      }

      .cls-35 {
        fill: #2a3754;
      }

      .cls-36 {
        fill: #101216;
      }

      .cls-37 {
        opacity: 0.52;
      }

      .cls-38 {
        fill: #34b0e2;
      }
    </style>
  </defs>
  <g id="Layer_1" data-name="Layer 1">
    <g>
      <g class="cls-1">
        <path class="cls-2" d="M177,52.59c3.17,18.42-.73,36.35-16.84,48.45-11,8.29-24.11,6.64-32.35,17.38-9,11.74-11,13.81-23.14,23a54.82,54.82,0,0,1-44,9.36,49.19,49.19,0,0,1-33.17-25.59C21.64,113.4-2.63,53.5,48.2,25.81,71.57,13.07,121.06,10.37,145.05,19,160.16,24.47,173.77,34.17,177,52.59Z"/>
      </g>
      <g>
        <path class="cls-3" d="M104,128.86h0v-.69l0,0s-.14,0-.19-.05-.7-.86-.73-.94a.32.32,0,0,1,0-.18l.16-.25-82.7-.06c-1.51,0-3.62-.26-4.34-1l-3.76,2.5c-1.88,2,1.95,2.55,4.33,2.55l86.78.06v-1.63Z"/>
        <path class="cls-3" d="M179.75,128.31,176,125.75c-.74.73-2.68,1.06-4.17,1.06h-.18l-58.59,0c0,.2,0,.39,0,.59,0,1.29,0,2.51,0,3.46l62.37,0C177.8,130.86,181.28,130.1,179.75,128.31Z"/>
        <path class="cls-3" d="M105.88,126.77h-1l0,.11a3,3,0,0,1,0,.6l-.36.42-.24.11h.08a.09.09,0,0,1,.09.09v.76h.35v1.95h1.39c-.09-.6-.16-1.08-.19-1.38C106,128.69,105.92,127.72,105.88,126.77Z"/>
        <path class="cls-4" d="M171.65,122.42l-59,0a23.36,23.36,0,0,1,.84,2.74l-.51.2c0,.44.07.93.09,1.45l58.59,0h.18c1.49,0,3.43-.33,4.17-1.06a.89.89,0,0,0,.31-.69v-4.24h0a1,1,0,0,1-.17.39v-.39h0C176,121.93,173.47,122.42,171.65,122.42Z"/>
        <path class="cls-4" d="M104.91,126.77h1q0-.51,0-1l-.45-.13s.11-1.47.29-3.27h-.09c-.44,1.8-.82,3.42-.82,3.42h-.18A5.29,5.29,0,0,0,104.91,126.77Z"/>
        <path class="cls-4" d="M103.18,126.77a4,4,0,0,0,.35-.67l.09-.3h-.17s.1-1.63.22-3.43h-8.4l-74.79-.05c-1.85,0-4.6-.38-4.61-1.58h0v4.51h0a.86.86,0,0,0,.26.45c.72.75,2.83,1,4.34,1Z"/>
        <path class="cls-5" d="M153.16,107H140.9c0,.56,0,1.32.06,2.35h7.55c2.15,2,7.8,6.53,11.08,10H112.66a4.94,4.94,0,0,1-.55.76s0,.46.09,1.08c0,0,.2.53.43,1.21l59,0c1.82,0,4.3-.49,4.46-1.6a1.19,1.19,0,0,0-.34-.95l-19.85-14.2A3.6,3.6,0,0,1,153.16,107Z"/>
        <path class="cls-5" d="M54.26,107H52.82v.1c0,.12,0,.24-.05.37l0,.25c0,.14,0,.28,0,.43s0,.15,0,.23,0,.35-.07.54l0,.22,0,.21h1.87c-.05-.62-.07-1.13-.07-1.45S54.29,107.33,54.26,107Z"/>
        <path class="cls-5" d="M57.11,108c0,.22-.08.68-.13,1.29h28c-.09-.81-.19-1.6-.29-2.35H57.22Z"/>
        <path class="cls-5" d="M137.48,107c0,.72.06,1.54.06,2.35h1.79L138.9,107Z"/>
        <path class="cls-5" d="M110.32,107c.54,0,1.58.33,1.58,1.33a7.29,7.29,0,0,1-.07.87c.08,0,.18-.07.23,0a.37.37,0,0,1,0,.12h23.71c-.14-.81-.28-1.62-.4-2.35Z"/>
        <path class="cls-5" d="M88.73,107H88c-.09.72-.16,1.5-.2,2.35h1.4C89,108.51,88.87,107.72,88.73,107Z"/>
        <path class="cls-5" d="M108.68,109.1c0-.11,0-.22,0-.33,0-.61.11-1.67,1.38-1.79H92.14a22.61,22.61,0,0,0-.06,2.35h16.37C108.46,109.22,108.61,109.14,108.68,109.1Z"/>
        <path class="cls-5" d="M20.48,122.32l74.79.05h8.4c.08-1.05.16-2.16.24-3H92.36c0,.85-.07,1.42-.07,1.42h0c0,.24,0,.48-.06.55s-.61,0-.61,0a5.64,5.64,0,0,1-.9-.39c-.16-.14-.63-.16-.85-.34a.84.84,0,0,1-.34-.64.42.42,0,0,1,.53-.22,3,3,0,0,1,.49.16l.5.09c0-.18-.07-.39-.11-.61H87.49c-.12,1.08-.22,1.84-.22,1.84h0c.06.29.1.65,0,.73s-.61,0-.61,0a5,5,0,0,1-.9-.4c-.16-.13-.63-.16-.85-.33a.84.84,0,0,1-.34-.64.42.42,0,0,1,.53-.22,3,3,0,0,1,.49.16l.44.08c0-.3-.06-.71-.1-1.2H34.56c3.37-3.48,9.5-8,11.7-10h3.79V107H40.9a3.64,3.64,0,0,1-3.27-2.07L16.35,119.77a1.49,1.49,0,0,0-.48,1C15.88,121.94,18.63,122.32,20.48,122.32Z"/>
        <path class="cls-5" d="M105.75,121.74l-.15.64h.09Z"/>
        <path class="cls-4" d="M89.16,109.33h-1.4a35.81,35.81,0,0,0,0,4,41.88,41.88,0,0,1-.31,6h3.45C90.57,117.19,89.83,113,89.16,109.33Z"/>
        <path class="cls-4" d="M84.93,109.33H57c-.16,1.93-.4,5.3-.51,6.84h0S57.93,116,58,116s.14.2.14.2l-.8.79-1.25.15-.5.26-.56-.16v-.67h0c-.1-.93-.51-4.88-.67-7.24H52.51c-.06.45-.13.91-.19,1.38l0,.14c0,.24-.07.47-.1.7l0,.13c0,.26-.07.5-.11.74v0c-.16,1.08-.3,2.06-.4,2.7A12.89,12.89,0,0,1,53,115c.09,0,.15.2.15.2l-.8.79-1.25.16-.5.26-.57-.17v-.31h0v-6.6H46.26c-2.2,2-8.33,6.52-11.7,10H85.89C85.71,117.06,85.36,113,84.93,109.33Z"/>
        <path class="cls-4" d="M108.77,111.75a1.55,1.55,0,0,1,.4-.1l-.12-1.22a1.14,1.14,0,0,1-.1-.19c-.2.15-.33-.07-.41-.23a1.59,1.59,0,0,1-.09-.68H92.08c0,1.16.12,2.36.24,3.58a60.11,60.11,0,0,1,0,6.42h11.55c.06-.68.12-1.23.17-1.5.45-2.64,1.17-3.24,2-4,0,0,1.3-.77,2.35-1.36A4.28,4.28,0,0,1,108.77,111.75Z"/>
        <path class="cls-4" d="M148.51,109.33H141c0,.84,0,1.87,0,3.13h0v.13h0l0,.64a2.12,2.12,0,0,1-.2.92c-.18.24-1.3.18-1.3.18s-1,0-1.33,0-.48-.41-.16-.57.94-.31,1.37-.45l.09,0,.11,0a.85.85,0,0,0,.13-.06h0a.62.62,0,0,0,.3-.45s-.31-1.66-.65-3.43h-1.79c0,1.45,0,2.84,0,3.45h0l0,.32h0l0,.45a2.12,2.12,0,0,1-.2.92c-.18.24-1.3.18-1.3.18s-1,0-1.33,0-.48-.41-.16-.57a4.25,4.25,0,0,1,.61-.22h0l.75-.23.1,0,.1,0,.13,0h0a.58.58,0,0,0,.28-.36h0c0-.24-.31-2-.63-3.84H112.08a1.81,1.81,0,0,1-.07.54c0,.1-.13.53-.43.46a.58.58,0,0,1,0,.14l0,1.19a2.34,2.34,0,0,1,.35.13l.07.14.14.11a14.28,14.28,0,0,1,2,2.18,15.13,15.13,0,0,1-1.43,5.11h46.93C156.31,115.86,150.66,111.38,148.51,109.33Z"/>
        <path class="cls-4" d="M40.1,37.86c0-1.82.54-2.27,2.47-2.27H151.48c1.93,0,2.48.45,2.48,2.27V52.41h2.84v-15a4.54,4.54,0,0,0-4.53-4.52H41.78a4.53,4.53,0,0,0-4.52,4.52V52.34H40.1Zm57.58-4.39a.62.62,0,1,1,0,1.24.62.62,0,0,1,0-1.24Z"/>
        <path class="cls-4" d="M84.26,101.5l-2.36,1.55a.34.34,0,0,1-.46-.1L80.19,101H57.68c-.09,2-.31,4.49-.46,5.94H84.64c-.12-.89-.24-1.72-.37-2.45a7.17,7.17,0,0,1-.1-1.55l-.33,0Z"/>
        <path class="cls-4" d="M53,105.18c0,.36-.06.66-.07.87s0,.21,0,.35a1.11,1.11,0,0,1,0,.17q0,.14,0,.3s0,.07,0,.11h1.44c-.16-1.78-.64-4.71-.82-5.78l-.08.09C53.23,102.68,53.09,104.17,53,105.18Z"/>
        <path class="cls-4" d="M154,97.73c0,3.17-.55,3.31-2.48,3.31h-8.75a7.31,7.31,0,0,1-1.17.62,12.06,12.06,0,0,0-.89,3.19,6.66,6.66,0,0,1,.23,2.13h12.26a3.71,3.71,0,0,0,3.64-3.64V77.72H154Z"/>
        <path class="cls-4" d="M137.25,105.14a8.24,8.24,0,0,1,.23,1.84h1.42c-.18-1-.32-1.75-.34-1.91,0-.32-.09-1.7-.12-2.81-.32,0-.64,0-.94,0C137.44,103.25,137.27,104.22,137.25,105.14Z"/>
        <path class="cls-4" d="M40.9,107h9.15V101H42.57c-1.93,0-2.47-.45-2.47-2.28V77.65H37.26v25.69A3.68,3.68,0,0,0,40.9,107Z"/>
        <path class="cls-4" d="M88.31,104.79c-.13.65-.25,1.38-.35,2.19h.77C88.58,106.17,88.44,105.43,88.31,104.79Z"/>
        <path class="cls-4" d="M110.09,107h25.3c-.2-1.19-.36-2.14-.36-2.35,0-.38-.16-1.89-.29-3a3.07,3.07,0,0,1-.76-.4,1.06,1.06,0,0,1,0-.2H92.43c.38.78.68,1.36.68,1.36l-.48.14a4.5,4.5,0,0,1-.08,2,12.72,12.72,0,0,0-.41,2.48h18Z"/>
        <path class="cls-6" d="M90.89,97.2A18.13,18.13,0,0,0,92.43,101H134a15.24,15.24,0,0,1,1-4.65H92.43C92.18,97.1,91,97.41,90.89,97.2Z"/>
        <path class="cls-6" d="M84.79,96.77l.37-.28,0-.1h-.59Z"/>
        <path class="cls-6" d="M43,39.63H150.7V52.41H154V37.86c0-1.82-.55-2.27-2.48-2.27H42.57c-1.93,0-2.47.45-2.47,2.27V52.34H43V39.63Z"/>
        <path class="cls-6" d="M49.68,99.3a4.85,4.85,0,0,1-.25-1.1c-.47-.14-.74-.24-.74-.24l.47-1.57H43V77.65H40.1V98.76c0,1.83.54,2.28,2.47,2.28h7.48v-.64A5.26,5.26,0,0,0,49.68,99.3Z"/>
        <path class="cls-6" d="M142.15,96.39a13.09,13.09,0,0,1,.69,4.58l-.11.07h8.75c1.93,0,2.48-.14,2.48-3.31v-20H150.7V96.39Z"/>
        <path class="cls-6" d="M80.08,100.87a1.64,1.64,0,0,1-.43-.52s0-.06,0-.07l-2.5-3.81a.12.12,0,0,1,0-.08H57.59c.15,1.31.3,2.66.3,2.66l-.18,0c0,.53,0,1.21,0,2H80.19Z"/>
        <path class="cls-7" d="M49.16,96.39l1.07-3.52s-.36-5.25,0-5.77a2.85,2.85,0,0,1,2-1.21c.37.07.83.14,1.3.21h0l-.31,0,.24-.48h.06l0-.36c0-.29-.58-.89-.84-1.46a1.79,1.79,0,0,1,1-2.09,2.05,2.05,0,0,1,2.44.31c.18.25-.1.48-.15.67s.23.51.24.55,0,2.13,0,2.22-.22.2-.22.2a.6.6,0,0,1-.39-.05l-.08.36a9.27,9.27,0,0,1,.74.56.93.93,0,0,0,.1.05h0l.5.19V50.33a3.52,3.52,0,0,1,3.51-3.51h53.36a3.52,3.52,0,0,1,3.51,3.51v7h21a2.33,2.33,0,0,1,2.31,2.32v21c1.08.61,1.24,2.3,1.05,3.06a4.59,4.59,0,0,0,.17,2.18c.26.15.56.51.54,1.67,0,1.61-1.16,2.41-1.27,2.9s-1,2.29-.08,3.52a8.36,8.36,0,0,1,1.11,2.42h8.55V77.72h-3.26a2.2,2.2,0,0,1-2.2-2.21V54.62a2.2,2.2,0,0,1,2.2-2.21h3.26V43.28H43v9.06h7.44a2.2,2.2,0,0,1,2.2,2.21V75.44a2.2,2.2,0,0,1-2.2,2.21H43V96.39Z"/>
        <path class="cls-7" d="M55.37,86.36l.93.13-.92-.13Z"/>
        <path class="cls-7" d="M138.17,84.66H117.28v3.62H88.68l0,.06h0s.14.15.35.4h.08a.78.78,0,0,1,.7.56,2,2,0,0,1,1.55.91c.52.79,1.06,4.93,1.13,5.87a.85.85,0,0,1,0,.32H135c.43-1.34.86-2.52.95-2.91a8.6,8.6,0,0,0-.26-3.29c-.54,1.22-1.44,2.9-2.08,2.69-.91-.31-2.82-3.71-2.82-3.71l.57-.35-.65.34a4.6,4.6,0,0,1-.38-.33,4.16,4.16,0,0,1-.5-1.29,4.24,4.24,0,0,1,0-.71l-1.26-1.72s0-.08.07-.09l2.64-.17a.25.25,0,0,1,.18.07l1.37,1.88h.05a7.31,7.31,0,0,1,.56.56l1.06.55c.23-.73.44-1.36.52-1.55a1.19,1.19,0,0,1,.83-.63,10,10,0,0,1,1.72-.44l.61.06.12-.68Z"/>
        <path class="cls-7" d="M131.35,88.82l.14-.08s2,2.25,2,2,.31-.91.6-1.82l-.94-.83-2,.13C131.28,88.56,131.35,88.82,131.35,88.82Z"/>
        <path class="cls-7" d="M61.1,89l.67-.67h-2Z"/>
        <path class="cls-7" d="M86.56,89.15h0c0-.24.1-.48.15-.69,0,0-.09-.07-.11-.12l0-.06H64.06a11.55,11.55,0,0,1-2.32,3c-.59.36-2.35-.24-3.83-.86a26.2,26.2,0,0,0-.58,3.59c0,.32.14,1.31.26,2.33H77.18a.31.31,0,0,1,.11-.38l4.62-3a.33.33,0,0,1,.46.1l2.17,3.31h.59a29.69,29.69,0,0,1-.37-4.61,1.91,1.91,0,0,1,.8-1.48h0a1.9,1.9,0,0,1,.37-.19S86.26,89.31,86.56,89.15Z"/>
        <path class="cls-8" d="M43,39.63v3.65H150.7V39.63Zm102.66,1.5h2.19v.33h-2.19Zm-94.08.39H47.42a.25.25,0,0,1,0-.49h4.19a.25.25,0,0,1,0,.49Zm5.43,0H54.6a.25.25,0,1,1,0-.49H57a.25.25,0,0,1,0,.49Zm5.86,0H60.45a.25.25,0,0,1,0-.49H62.9a.25.25,0,0,1,0,.49Zm5.86,0H66.31a.25.25,0,0,1,0-.49h2.45a.25.25,0,0,1,0,.49Zm75.08.64a.21.21,0,0,1-.29,0l-.68-.5a.75.75,0,0,1-.48.18.77.77,0,1,1,.76-.77,1.09,1.09,0,0,1,0,.26l.69.5A.21.21,0,0,1,143.84,42.16Zm4.68.08h-2.83v-.33h2.83Zm0-1.36h-2.83v-.33h2.83Z"/>
        <path class="cls-8" d="M142.39,40.67a.44.44,0,0,0-.44.44.43.43,0,0,0,.44.44.44.44,0,0,0,.44-.44A.44.44,0,0,0,142.39,40.67Z"/>
        <rect class="cls-9" x="117.34" y="74.62" width="0.62" height="3.56"/>
        <rect class="cls-10" x="118.28" y="75.86" width="0.62" height="2.32"/>
        <rect class="cls-11" x="119.21" y="71.35" width="0.62" height="6.83"/>
        <rect class="cls-9" x="121.08" y="72.37" width="0.62" height="5.81"/>
        <rect class="cls-10" x="122.02" y="72.89" width="0.62" height="5.29"/>
        <rect class="cls-11" x="122.96" y="71.35" width="0.62" height="6.83"/>
        <rect class="cls-9" x="124.86" y="72.37" width="0.62" height="5.81"/>
        <rect class="cls-10" x="125.8" y="73.17" width="0.62" height="5.01"/>
        <rect class="cls-11" x="126.74" y="75.53" width="0.62" height="2.64"/>
        <rect class="cls-9" x="128.63" y="70.4" width="0.62" height="7.78"/>
        <rect class="cls-10" x="129.57" y="73.17" width="0.62" height="5.01"/>
        <rect class="cls-11" x="130.51" y="68.38" width="0.62" height="9.8"/>
        <rect class="cls-9" x="132.41" y="72.76" width="0.62" height="5.42"/>
        <rect class="cls-10" x="133.35" y="74.69" width="0.62" height="3.49"/>
        <rect class="cls-11" x="134.29" y="71.35" width="0.62" height="6.83"/>
        <rect class="cls-9" x="135.9" y="70.4" width="0.62" height="7.78"/>
        <rect class="cls-10" x="136.84" y="67.98" width="0.31" height="10.2"/>
        <rect class="cls-11" x="137.78" y="68.38" width="0.62" height="9.8"/>
        <rect class="cls-12" x="117.34" y="79.41" width="15.07" height="0.56"/>
        <rect class="cls-12" x="117.34" y="80.35" width="15.07" height="0.28"/>
        <rect class="cls-12" x="117.34" y="80.99" width="15.07" height="0.28"/>
        <rect class="cls-12" x="117.34" y="81.64" width="10.29" height="0.28"/>
        <rect class="cls-9" x="117.28" y="63.43" width="0.52" height="1.21"/>
        <rect class="cls-12" x="118.02" y="63.43" width="5.39" height="1.21"/>
        <rect class="cls-10" x="124.08" y="63.43" width="1.2" height="1.21"/>
        <rect class="cls-12" x="125.51" y="63.43" width="5.39" height="1.21"/>
        <rect class="cls-11" x="131.57" y="63.43" width="1.2" height="1.21"/>
        <rect class="cls-12" x="133" y="63.43" width="5.39" height="1.21"/>
        <path class="cls-13" d="M59.81,88.28h2l2.73-2.71h0l.43-.42s1-.83,1.34-1.16.35.17.06.43a6.42,6.42,0,0,0-.51.54.63.63,0,0,1,.3.2.38.38,0,0,1,0,.29c.08,0,.16.08.13.15s-.87.46-.87.46l-.22.14.07.08s-.5.93-1.15,2H86.57a4.25,4.25,0,0,1-.37-1.75.61.61,0,0,1,0-.11s-.1,0-.14-.18A1,1,0,0,1,86.61,85a1.82,1.82,0,0,1,2.32.22c.74.69-.13,2.79-.25,3.08h28.6V84.66h20.89a.84.84,0,0,1-.43-.22,2.38,2.38,0,0,1-.22-1.57,5.52,5.52,0,0,1,.36-1.3h0a3,3,0,0,1,.1-.32,2.14,2.14,0,0,1,2.48-.71.7.7,0,0,1,.16.1v-21a2.33,2.33,0,0,0-2.31-2.32h-21v-7a3.52,3.52,0,0,0-3.51-3.51H60.41a3.52,3.52,0,0,0-3.51,3.51v36.4a4,4,0,0,1,1,.48C58,87.32,59,87.84,59.81,88.28Zm35.48-5.51H62V81.51H95.29Zm0-2H62V79.55H95.29Zm0-2H62V77.59H95.29Zm0-2H62V75.63H95.29Zm0-2H62V73.67H95.29Zm0-2H62V71.71H95.29Zm0-2H62V69.75H95.29Zm3,5.25a7.15,7.15,0,0,1,.17-1.55l3.84,1a2.62,2.62,0,0,0-.06.57,2.92,2.92,0,0,0,1.27,2.41l-2.06,3.38A6.89,6.89,0,0,1,98.28,76.26Zm6.88,6.88a6.85,6.85,0,0,1-3.45-.93l2.06-3.38a2.81,2.81,0,0,0,1.39.35,3.18,3.18,0,0,0,.62-.06l1,3.81A7,7,0,0,1,105.16,83.14Zm-3.29-12.93a7,7,0,0,1,3.13-.83v4a2.82,2.82,0,0,0-1.16.31Zm5.26,12.64-1-3.82a3,3,0,0,0,1.75-1.58l3.69,1.41A6.91,6.91,0,0,1,107.13,82.85Zm4.51-4.28-3.7-1.42a2.92,2.92,0,0,0-2.63-3.81v-4A6.88,6.88,0,0,1,112,76.26,7,7,0,0,1,111.64,78.57Zm16,3.35H117.34v-.28h10.29Zm4.78-.65H117.34V81h15.07Zm0-.64H117.34v-.28h15.07Zm0-.66H117.34v-.56h15.07Zm-14.13-1.79V75.86h.62v2.32Zm.93,0V71.35h.62v6.83Zm1.87,0V72.37h.62v5.81Zm.94,0V72.89h.62v5.29Zm3.78,0v-5h.62v5Zm.94,0V75.53h.62v2.65Zm1.89,0V70.4h.62v7.78Zm.94,0v-5h.62v5Zm3.46,0h-.62V72.76H133Zm.94,0h-.62V74.69H134Zm.94,0h-.62V71.35h.62Zm1.61,0h-.62V70.4h.62Zm.63,0h-.31V68h.31Zm1.25,0h-.62v-9.8h.62ZM133,63.43h5.4v1.2H133Zm-1.43,0h1.21v1.2h-1.21Zm-.44,14.75h-.62v-9.8h.62Zm-5.62-14.75h5.4v1.2h-5.4Zm0,14.75h-.62V72.37h.62Zm-1.4-14.75h1.21v1.2h-1.21Zm-.5,14.75H123V71.35h.62ZM118,63.43h5.4v1.2H118ZM118,78.18h-.62V74.62H118Zm-.16-14.75v1.2h-.52v-1.2Zm-16.69-5.25h13.37v1.2H101.11Zm0,3.31h5.64v1.2h-5.64Zm0,3.26h11.54V66H101.11Zm.48,5.62,2,3.43a3,3,0,0,0-1.2,1.58l-3.83-1A7,7,0,0,1,101.59,70.37ZM97.32,57.89h1.94v1.88H97.32Zm0,3.26h1.94V63H97.32Zm0,3.26h1.94v1.88H97.32Zm-3.86-2.68L87.63,64.3l-2.42-1.79L90,58.23ZM86.84,56l2,2.48-4.16,3.6-1.61-1.24Zm-5.9,4.74-5.18,3.79,3.86-4.7Zm-5.71.85,1.27,1.15-1.75,2-1.54-1.15ZM75,65.21,82,60.28l5.65,4.2,7.67-3.37v6.57H62l3.7-3.7,2.44,1.85,3.5-3.1Zm-6.2-15.52A1.27,1.27,0,1,1,67.57,51,1.27,1.27,0,0,1,68.84,49.69Zm-.3,12.78,1.92,1.14-2.28,2-1.05-.83ZM65.07,49.69A1.27,1.27,0,1,1,63.8,51,1.26,1.26,0,0,1,65.07,49.69Zm-3.78,0A1.27,1.27,0,1,1,60,51,1.27,1.27,0,0,1,61.29,49.69Z"/>
        <path class="cls-14" d="M61.29,52.23A1.27,1.27,0,1,0,60,51,1.27,1.27,0,0,0,61.29,52.23Z"/>
        <path class="cls-15" d="M65.07,52.23A1.27,1.27,0,1,0,63.8,51,1.26,1.26,0,0,0,65.07,52.23Z"/>
        <path class="cls-16" d="M68.84,52.23A1.27,1.27,0,1,0,67.57,51,1.27,1.27,0,0,0,68.84,52.23Z"/>
        <polygon class="cls-9" points="65.72 63.98 62.02 67.69 95.29 67.69 95.29 61.11 87.62 64.48 81.97 60.27 75.04 65.21 71.66 62.73 68.16 65.83 65.72 63.98"/>
        <polygon class="cls-17" points="70.46 63.61 68.54 62.47 67.13 64.82 68.18 65.65 70.46 63.61"/>
        <polygon class="cls-11" points="76.5 62.75 75.23 61.6 73.21 63.64 74.75 64.79 76.5 62.75"/>
        <polygon class="cls-17" points="80.94 60.75 79.62 59.84 75.76 64.54 80.94 60.75"/>
        <polygon class="cls-11" points="88.83 58.49 86.84 56.01 83.06 60.84 84.67 62.09 88.83 58.49"/>
        <polygon class="cls-17" points="87.63 64.3 93.46 61.73 89.96 58.23 85.21 62.51 87.63 64.3"/>
        <rect class="cls-11" x="97.32" y="57.89" width="1.94" height="1.88"/>
        <rect class="cls-17" x="97.32" y="61.15" width="1.94" height="1.88"/>
        <rect class="cls-9" x="97.32" y="64.41" width="1.94" height="1.88"/>
        <rect class="cls-18" x="101.11" y="58.18" width="13.37" height="1.2"/>
        <rect class="cls-18" x="101.11" y="61.49" width="5.63" height="1.2"/>
        <rect class="cls-18" x="101.11" y="64.75" width="11.53" height="1.2"/>
        <path class="cls-9" d="M105.31,69.38v4a2.92,2.92,0,0,1,2.63,3.81l3.7,1.42a7,7,0,0,0,.39-2.31A6.88,6.88,0,0,0,105.31,69.38Z"/>
        <path class="cls-17" d="M105,69.38a7,7,0,0,0-3.13.83l2,3.44a2.82,2.82,0,0,1,1.16-.31Z"/>
        <path class="cls-18" d="M105.16,79.18a2.81,2.81,0,0,1-1.39-.35l-2.06,3.38a6.85,6.85,0,0,0,3.45.93,7,7,0,0,0,1.66-.21l-1-3.81A3.18,3.18,0,0,1,105.16,79.18Z"/>
        <path class="cls-6" d="M106.08,79l1,3.82a6.91,6.91,0,0,0,4.39-4l-3.69-1.41A3,3,0,0,1,106.08,79Z"/>
        <path class="cls-10" d="M102.23,76.26a2.62,2.62,0,0,1,.06-.57l-3.84-1a7.15,7.15,0,0,0-.17,1.55,6.89,6.89,0,0,0,3.16,5.79l2.06-3.38A2.92,2.92,0,0,1,102.23,76.26Z"/>
        <path class="cls-11" d="M102.36,75.38a3,3,0,0,1,1.2-1.58l-2-3.43a7,7,0,0,0-3.06,4Z"/>
        <rect class="cls-6" x="72.67" y="77.59" width="5.99" height="1.26"/>
        <rect class="cls-6" x="72.67" y="79.55" width="2.72" height="1.26"/>
        <rect class="cls-6" x="72.67" y="81.51" width="9.34" height="1.26"/>
        <rect class="cls-6" x="72.67" y="69.75" width="22.63" height="1.26"/>
        <rect class="cls-11" x="62.02" y="69.75" width="10.65" height="1.26"/>
        <rect class="cls-6" x="72.67" y="71.71" width="16.96" height="1.26"/>
        <rect class="cls-17" x="89.63" y="71.71" width="5.66" height="1.26"/>
        <rect class="cls-11" x="62.02" y="71.71" width="10.65" height="1.26"/>
        <rect class="cls-6" x="72.67" y="73.67" width="10.69" height="1.26"/>
        <rect class="cls-17" x="83.36" y="73.67" width="11.93" height="1.26"/>
        <rect class="cls-11" x="62.02" y="73.67" width="10.65" height="1.26"/>
        <rect class="cls-6" x="72.67" y="75.63" width="9.34" height="1.26"/>
        <rect class="cls-17" x="82.01" y="75.63" width="13.28" height="1.26"/>
        <rect class="cls-17" x="78.66" y="77.59" width="16.64" height="1.26"/>
        <rect class="cls-17" x="75.39" y="79.55" width="19.91" height="1.26"/>
        <rect class="cls-17" x="82.01" y="81.51" width="13.28" height="1.26"/>
        <rect class="cls-11" x="62.02" y="75.63" width="10.65" height="1.26"/>
        <rect class="cls-11" x="62.02" y="77.59" width="10.65" height="1.26"/>
        <rect class="cls-11" x="62.02" y="79.55" width="10.65" height="1.26"/>
        <rect class="cls-11" x="62.02" y="81.51" width="10.65" height="1.26"/>
        <path class="cls-19" d="M51.61,41H47.42a.25.25,0,0,0,0,.49h4.19a.25.25,0,0,0,0-.49Z"/>
        <path class="cls-19" d="M57,41H54.6a.25.25,0,1,0,0,.49H57A.25.25,0,0,0,57,41Z"/>
        <path class="cls-19" d="M62.9,41H60.45a.25.25,0,0,0,0,.49H62.9a.25.25,0,0,0,0-.49Z"/>
        <path class="cls-19" d="M68.76,41H66.31a.25.25,0,0,0,0,.49h2.45a.25.25,0,0,0,0-.49Z"/>
        <path class="cls-19" d="M143.11,41.37a1.09,1.09,0,0,0,0-.26.77.77,0,1,0-.76.77.75.75,0,0,0,.48-.18l.68.5a.21.21,0,1,0,.25-.33Zm-.72.18a.43.43,0,0,1-.44-.44.44.44,0,0,1,.44-.44.44.44,0,0,1,.44.44A.44.44,0,0,1,142.39,41.55Z"/>
        <rect class="cls-19" x="145.69" y="40.55" width="2.84" height="0.34"/>
        <rect class="cls-19" x="145.69" y="41.91" width="2.84" height="0.34"/>
        <rect class="cls-19" x="145.69" y="41.13" width="2.2" height="0.34"/>
        <path class="cls-13" d="M43,77.65h7.44a2.2,2.2,0,0,0,2.2-2.21V54.55a2.2,2.2,0,0,0-2.2-2.21H26.18A2.21,2.21,0,0,0,24,54.55V75.44a2.21,2.21,0,0,0,2.21,2.21H43Zm8-18.28a.34.34,0,0,1-.34.34.35.35,0,0,1-.34-.34v-.28a.34.34,0,0,1,.34-.34.34.34,0,0,1,.34.34Zm-.43-1H49.42A.43.43,0,0,1,49,57.9a.44.44,0,0,1,.43-.44h1.23a.44.44,0,0,1,.43.44A.43.43,0,0,1,50.65,58.33ZM43.44,55h7.34a.31.31,0,0,1,0,.61H43.44a.31.31,0,0,1,0-.61Zm0,1.16h7.34a.31.31,0,0,1,0,.61H43.44a.31.31,0,0,1,0-.61Zm.13,1.28h4.71a.44.44,0,0,1,.44.44.44.44,0,0,1-.44.43H43.57a.43.43,0,0,1-.43-.43A.44.44,0,0,1,43.57,57.46Zm0,1.29h6a.48.48,0,0,1,0,1h-6a.48.48,0,0,1,0-1Zm.54,5A6,6,0,0,1,38.32,71V69.24a4.25,4.25,0,0,0,.94-8.4,4.3,4.3,0,0,0-3.61.85A4.25,4.25,0,0,0,34.07,65H32.35a5.94,5.94,0,0,1,2.22-4.63,6,6,0,0,1,9.58,3.34ZM36.44,74.22a9.38,9.38,0,0,1-7.34-7.35,9.4,9.4,0,0,1,9.22-11.28v1.72a7.69,7.69,0,0,0-1.55,15.22A7.69,7.69,0,0,0,46,65h1.72a9.4,9.4,0,0,1-9.42,9.41A9.87,9.87,0,0,1,36.44,74.22Z"/>
        <path class="cls-20" d="M44.3,72.26A9.4,9.4,0,0,0,47.73,65H46a7.69,7.69,0,1,1-7.69-7.68V55.59a9.41,9.41,0,0,0-1.88,18.63,9.87,9.87,0,0,0,1.87.18A9.39,9.39,0,0,0,44.3,72.26Z"/>
        <path class="cls-9" d="M34.57,60.36A5.94,5.94,0,0,0,32.35,65h1.72a4.25,4.25,0,0,1,1.58-3.3,4.3,4.3,0,0,1,3.61-.85,4.22,4.22,0,0,1,3.21,3.22,4.24,4.24,0,0,1-4.15,5.18V71a6,6,0,0,0,1.3-11.8A6,6,0,0,0,34.57,60.36Z"/>
        <path class="cls-20" d="M43.44,55.63h2.19a.31.31,0,0,1,0-.61H43.44a.31.31,0,0,0,0,.61Z"/>
        <path class="cls-9" d="M45.33,55.32a.31.31,0,0,0,.3.31h5.15a.31.31,0,0,0,0-.61H45.63A.31.31,0,0,0,45.33,55.32Z"/>
        <path class="cls-9" d="M48.89,56.49a.31.31,0,0,1-.3.3h2.19a.31.31,0,0,0,0-.61H48.59A.31.31,0,0,1,48.89,56.49Z"/>
        <path class="cls-20" d="M43.44,56.79h5.15a.31.31,0,0,0,0-.61H43.44a.31.31,0,0,0,0,.61Z"/>
        <path class="cls-9" d="M43.57,58.33h4.71a.44.44,0,0,0,.44-.43.44.44,0,0,0-.44-.44H43.57a.44.44,0,0,0-.43.44A.43.43,0,0,0,43.57,58.33Z"/>
        <path class="cls-20" d="M50.65,57.46H49.42a.44.44,0,0,0-.43.44.43.43,0,0,0,.43.43h1.23a.43.43,0,0,0,.43-.43A.44.44,0,0,0,50.65,57.46Z"/>
        <path class="cls-20" d="M43.61,59.71h6a.48.48,0,0,0,0-1h-6a.48.48,0,0,0,0,1Z"/>
        <path class="cls-9" d="M50.74,58.75a.34.34,0,0,0-.34.34v.28a.35.35,0,0,0,.34.34.34.34,0,0,0,.34-.34v-.28A.34.34,0,0,0,50.74,58.75Z"/>
        <path class="cls-13" d="M150.7,52.41h-3.26a2.2,2.2,0,0,0-2.2,2.21V75.51a2.2,2.2,0,0,0,2.2,2.21h22.22a2.2,2.2,0,0,0,2.2-2.21V54.62a2.2,2.2,0,0,0-2.2-2.21h-19Zm5.8,19.94A3.82,3.82,0,0,1,154,74.14l.45-2.06-.18-.63-.12.08-.59.38L153.28,73l-.43-1.08-.65-.35-.2-.11-.16.53h0l.61,2.15a3.84,3.84,0,1,1,4.05-1.78Zm7.36-16.44a3.82,3.82,0,0,1,.78,7.56l.45-2.06h0l-.18-.62-.12.07-.59.38-.28,1.09-.43-1.09-.66-.35-.2-.1-.16.53h0l.61,2.15a3.83,3.83,0,0,1-2.43-1.7,3.75,3.75,0,0,1-.6-2A3.82,3.82,0,0,1,163.86,55.91Zm0,10.67a3.82,3.82,0,0,1,3.82,3.82,3.84,3.84,0,0,1-3.82,3.81,3.82,3.82,0,0,1,0-7.63Zm-6.81-6.85a3.82,3.82,0,0,1-7.63,0,3.82,3.82,0,1,1,7.63,0Z"/>
        <path class="cls-21" d="M81.65,102.4l-.87-1.33a.47.47,0,0,1-.44,0,2.18,2.18,0,0,1-.26-.22l.11.17L81.44,103a.34.34,0,0,0,.46.1l2.36-1.55.3-1Z"/>
        <path class="cls-21" d="M82.37,93.08a.33.33,0,0,0-.46-.1l-4.62,3a.31.31,0,0,0-.11.38.12.12,0,0,0,0,.08l2.5,3.81a.12.12,0,0,1,0,0c.12.05.29-.13.37-.2L80,99.9a.86.86,0,0,1-.23,0c-.14,0-.13-.14-.13-.14l.23,0-2-3.09,1.22-.8-.34-.52L80.68,94l.34.52,1.22-.8,2.17,3.31.38-.29-.25-.38Z"/>
        <path class="cls-13" d="M81.65,101.76l-.63-1-.18.24-.06,0,.87,1.33,2.91-1.91.24-.78Z"/>
        <path class="cls-13" d="M80.14,99.89H80l.09.14,0,0C80.2,100,80.14,99.89,80.14,99.89Z"/>
        <path class="cls-13" d="M82.24,93.75l-1.22.8.13.2L79.22,96l-.14-.2-1.22.8,2,3.09.42,0L78.48,96.9l3.79-2.47,1.85,2.85.29-.22Z"/>
        <polygon class="cls-22" points="81.15 94.75 81.02 94.55 80.68 94.03 78.74 95.3 79.08 95.82 79.22 96.02 81.15 94.75"/>
        <path class="cls-23" d="M81.65,101.76l3.15-2.05.23-.79c-1.54.73-3.82,1.73-3.82,1.73l0-.07-.15.21Z"/>
        <path class="cls-23" d="M82.27,94.43,78.48,96.9l1.82,2.78h.1a3.39,3.39,0,0,1,.47.24l-.08-.16,3.33-2.49Zm.12,3.25a1.27,1.27,0,0,1-.36.37,1.25,1.25,0,0,1-.62.19,1.18,1.18,0,0,1-.89-.36,1.43,1.43,0,0,1-.15-.18,1.22,1.22,0,0,1,.06-1.39,1.24,1.24,0,0,1,.29-.27l.07,0a1.21,1.21,0,0,1,.91-.11,1.25,1.25,0,0,1,.68.5,1.14,1.14,0,0,1,.19.58A1.26,1.26,0,0,1,82.39,97.68Zm.66-.2.39-.26,0,0-.39.26Zm.7-.11-.54.35,0,0,.54-.36Zm0-.06-.54.35,0,0,.54-.36Zm0-.07-.54.36,0,0,.54-.35Z"/>
        <path class="cls-11" d="M81.7,95.89a1.21,1.21,0,0,0-.91.11l-.07,0a1.24,1.24,0,0,0-.29.27,1.22,1.22,0,0,0-.06,1.39,1.43,1.43,0,0,0,.15.18,1.18,1.18,0,0,0,.89.36l0-1.2Z"/>
        <path class="cls-9" d="M81.7,95.89,81.38,97,82.57,97a1.14,1.14,0,0,0-.19-.58A1.25,1.25,0,0,0,81.7,95.89Z"/>
        <path class="cls-6" d="M81.41,98.24a1.25,1.25,0,0,0,.62-.19A1.21,1.21,0,0,0,82.57,97L81.38,97Z"/>
        <rect class="cls-12" x="83.02" y="97.35" width="0.47" height="0.04" transform="translate(-39.64 61.19) rotate(-33.06)"/>
        <polygon class="cls-12" points="83.13 97.6 83.67 97.24 83.65 97.22 83.11 97.57 83.13 97.6"/>
        <polygon class="cls-12" points="83.17 97.66 83.71 97.31 83.69 97.28 83.15 97.64 83.17 97.66"/>
        <rect class="cls-12" x="83.15" y="97.52" width="0.65" height="0.03" transform="translate(-39.7 61.34) rotate(-33.07)"/>
        <path class="cls-24" d="M80.3,99.68l-.42,0-.23,0s0,.11.13.14a.86.86,0,0,0,.23,0h.13s.06.11,0,.12l0,0c-.08.07-.25.25-.37.2a.12.12,0,0,0,0,0s0,0,0,.07a1.64,1.64,0,0,0,.43.52,2.18,2.18,0,0,0,.26.22.47.47,0,0,0,.44,0l.06,0,.18-.24.15-.21-.3-.65a3.39,3.39,0,0,0-.47-.24Z"/>
        <path class="cls-25" d="M92.32,112.91c-.12-1.22-.21-2.42-.24-3.58a22.61,22.61,0,0,1,.06-2.35,12.72,12.72,0,0,1,.41-2.48,4.5,4.5,0,0,0,.08-2,19.6,19.6,0,0,1-4.32.78,39.17,39.17,0,0,1-4.14-.34,7.17,7.17,0,0,0,.1,1.55c.13.73.25,1.56.37,2.45s.2,1.54.29,2.35c.43,3.67.78,7.73,1,10,0,.49.07.9.1,1.2l-.44-.08a3,3,0,0,0-.49-.16.42.42,0,0,0-.53.22.84.84,0,0,0,.34.64c.22.17.69.2.85.33a5,5,0,0,0,.9.4s.4.15.61,0,.09-.44,0-.73h0s.1-.76.22-1.84a41.88,41.88,0,0,0,.31-6,35.81,35.81,0,0,1,0-4c0-.85.11-1.63.2-2.35s.22-1.54.35-2.19c.13.64.27,1.38.42,2.19s.28,1.53.43,2.35c.67,3.67,1.41,7.86,1.78,10,0,.22.08.43.11.61l-.5-.09a3,3,0,0,0-.49-.16.42.42,0,0,0-.53.22.84.84,0,0,0,.34.64c.22.18.69.2.85.34a5.64,5.64,0,0,0,.9.39s.4.15.61,0,.1-.31.06-.55h0s0-.57.07-1.42A60.11,60.11,0,0,0,92.32,112.91Z"/>
        <polygon class="cls-24" points="88.66 88.34 88.66 88.34 88.66 88.34 88.66 88.34"/>
        <path class="cls-18" d="M92.43,101a18.13,18.13,0,0,1-1.54-3.84c.11.21,1.29-.1,1.54-.81a.85.85,0,0,0,0-.32c-.07-.94-.61-5.08-1.13-5.87a2,2,0,0,0-1.55-.91,2,2,0,0,0-.35,0c.81,1.11,1.75,2.91.26,3.87-2.07,1.34-3.9-.28-3.45-2.54,0-.12.07-.34.13-.6l-.46.1h0a1.9,1.9,0,0,0-.37.19h0a1.91,1.91,0,0,0-.8,1.48,29.69,29.69,0,0,0,.37,4.61l0,.1-.37.28-.38.29-.29.22-3.33,2.49.08.16.3.65,0,.07s2.28-1,3.82-1.73l-.23.79-.24.78-.3,1-.42,1.44.33,0a39.17,39.17,0,0,0,4.14.34,19.6,19.6,0,0,0,4.32-.78l.48-.14S92.81,101.82,92.43,101Z"/>
        <path class="cls-13" d="M89.09,88.73H89c.13.15.27.33.43.55a2,2,0,0,1,.35,0A.78.78,0,0,0,89.09,88.73Z"/>
        <path class="cls-13" d="M86.56,89.15h0c-.3.16-.62.93-.63,1h0l.46-.1C86.43,89.76,86.5,89.46,86.56,89.15Z"/>
        <path class="cls-24" d="M86.71,88.46c.09-.43.16-.74.16-.74.23-.7-.21-1.11-.47-.74,0-.48-.08-.51-.17-.56a.61.61,0,0,0,0,.11,4.25,4.25,0,0,0,.37,1.75l0,.06S86.67,88.42,86.71,88.46Z"/>
        <path class="cls-26" d="M88.66,88.34h0l0-.06c.12-.29,1-2.39.25-3.08A1.82,1.82,0,0,0,86.61,85a1,1,0,0,0-.52,1.26c0,.13.09.16.14.18s.16.08.17.56c.26-.37.7,0,.47.74,0,0-.07.31-.16.74,0,.21-.1.45-.15.69s-.13.61-.18.87-.1.48-.13.6c-.45,2.26,1.38,3.88,3.45,2.54,1.49-1,.55-2.76-.26-3.87-.16-.22-.3-.4-.43-.55S88.66,88.34,88.66,88.34Z"/>
        <path class="cls-27" d="M66.23,85.61c0-.07,0-.12-.13-.15a.38.38,0,0,0,0-.29.63.63,0,0,0-.3-.2,6.42,6.42,0,0,1,.51-.54c.29-.26.28-.76-.06-.43s-1.34,1.16-1.34,1.16l-.43.42.63.63.22-.14S66.17,85.75,66.23,85.61Z"/>
        <path class="cls-27" d="M55.38,86.36l-1.88-.27h0l1.87.26Z"/>
        <path class="cls-27" d="M55.56,85.93l.08-.36a.6.6,0,0,0,.39.05s.21-.11.22-.2,0-2.16,0-2.22-.15-.34-.24-.55h0a7.31,7.31,0,0,1-.33.91,4.87,4.87,0,0,0,0,.92l-.19,0s0-.62-.35-.51-.21.34-.21.48-.12.61-.4.72a3,3,0,0,1-1,0h0l0,.36,2.07.35Z"/>
        <path class="cls-28" d="M54.52,85.2c.28-.11.39-.57.4-.72s-.11-.38.21-.48.35.51.35.51l.19,0a4.87,4.87,0,0,1,0-.92,7.31,7.31,0,0,0,.33-.91h0c0-.19.33-.42.15-.67a2.05,2.05,0,0,0-2.44-.31,1.79,1.79,0,0,0-1,2.09c.26.57.81,1.17.84,1.46h0A3,3,0,0,0,54.52,85.2Z"/>
        <path class="cls-25" d="M52.76,107.45l0,.25Z"/>
        <path class="cls-25" d="M52.68,108.13l0,.23C52.65,108.28,52.67,108.21,52.68,108.13Z"/>
        <path class="cls-25" d="M52.57,108.9l0,.22Z"/>
        <path class="cls-25" d="M52.32,110.71l0,.14Z"/>
        <path class="cls-25" d="M52.2,111.55l0,.13Z"/>
        <path class="cls-25" d="M50.05,115.93h0v.31l.57.17.5-.26,1.25-.16.8-.79s-.06-.16-.15-.2a12.89,12.89,0,0,0-1.36.14h0c.35-4.53,1-13.9,1-13.9a2.4,2.4,0,0,1-.56-1,2.27,2.27,0,0,0,.65.38c.81.3,1,.2,1,.2l-.3.35c.18,1.07.66,4,.82,5.78,0,.35.05.67.05.9s0,.83.07,1.45c.16,2.36.57,6.31.67,7.24h0v.67l.56.16.5-.26,1.25-.15.8-.79S58.1,116,58,116s-1.53.16-1.53.16h0c.11-1.54.35-4.91.51-6.84.05-.61.1-1.07.13-1.29l.11-1.06c.15-1.45.37-3.94.46-5.94,0-.76,0-1.44,0-2a21.26,21.26,0,0,1-8.28-.87,4.85,4.85,0,0,0,.25,1.1,5.26,5.26,0,0,1,.37,1.1v15.53Z"/>
        <path class="cls-25" d="M52.07,112.42v0Z"/>
        <path class="cls-25" d="M53.36,101.29h0c-.13,1.39-.27,2.88-.36,3.89C53.09,104.17,53.23,102.68,53.36,101.29Z"/>
        <path class="cls-25" d="M52.87,106.57a1.11,1.11,0,0,0,0-.17A1.11,1.11,0,0,1,52.87,106.57Z"/>
        <path class="cls-25" d="M52.81,107.08V107s0-.07,0-.11Z"/>
        <path class="cls-29" d="M57.59,96.39c-.12-1-.23-2-.26-2.33a26.2,26.2,0,0,1,.58-3.59c1.48.62,3.24,1.22,3.83.86a11.55,11.55,0,0,0,2.32-3c.65-1.06,1.15-2,1.15-2l-.07-.08-.63-.63h0l-2.73,2.71L61.1,89l-1.29-.67c-.83-.44-1.79-1-1.91-1.07a4,4,0,0,0-1-.48l-.5-.19h0a.93.93,0,0,1-.1-.05l-.93-.13L53.5,86.1c-.47-.07-.93-.14-1.3-.21a2.85,2.85,0,0,0-2,1.21c-.34.52,0,5.77,0,5.77l-1.07,3.52L48.69,98s.27.1.74.24a21.26,21.26,0,0,0,8.28.87l.18,0S57.74,97.7,57.59,96.39Z"/>
        <path class="cls-30" d="M52.57,108.9c0-.19,0-.36.07-.54l0-.23c0-.15,0-.29,0-.43l0-.25c0-.13,0-.25.05-.37l0-.21q0-.16,0-.3a1.11,1.11,0,0,0,0-.17c0-.14,0-.26,0-.35s0-.51.07-.87c.09-1,.23-2.5.36-3.89h0l.08-.09.3-.35s-.23.1-1-.2a2.27,2.27,0,0,1-.65-.38,2.4,2.4,0,0,0,.56,1s-.61,9.37-1,13.9h0c.1-.64.24-1.62.4-2.7v0c0-.24.07-.48.11-.74l0-.13c0-.23.06-.46.1-.7l0-.14c.06-.47.13-.93.19-1.38l0-.21Z"/>
        <path class="cls-13" d="M56.3,86.49a9.27,9.27,0,0,0-.74-.56h0l-2.07-.35h-.06l-.24.48.31,0,1.88.27Z"/>
        <path class="cls-27" d="M138.93,84.54a2.19,2.19,0,0,0-.76-1.52,1.56,1.56,0,0,1-.28-1.45h0a5.52,5.52,0,0,0-.36,1.3,2.38,2.38,0,0,0,.22,1.57.84.84,0,0,0,.43.22l.11,0-.12.68.32,0A1.83,1.83,0,0,0,138.93,84.54Z"/>
        <path class="cls-31" d="M137.25,105.14c0-.92.19-1.89.25-2.9a9.48,9.48,0,0,1-2.76-.6c.13,1.1.29,2.61.29,3,0,.21.16,1.16.36,2.35.12.73.26,1.54.4,2.35.32,1.85.63,3.6.63,3.84h0a.58.58,0,0,1-.28.36h0l-.13,0-.1,0-.1,0-.75.23h0a.44.44,0,0,0,.52.32,7.89,7.89,0,0,0,1.86-.66l0-.45h0l0-.32h0c0-.61.06-2,0-3.45,0-.81,0-1.63-.06-2.35A8.24,8.24,0,0,0,137.25,105.14Z"/>
        <path class="cls-31" d="M138.56,105.07c0,.16.16.93.34,1.91l.43,2.35c.34,1.77.65,3.43.65,3.43a.62.62,0,0,1-.3.45h0a.85.85,0,0,1-.13.06l-.11,0-.09,0-.76.23a.44.44,0,0,0,.52.33,7.83,7.83,0,0,0,1.86-.67l0-.64h0v-.13h0c0-1.26,0-2.29,0-3.13,0-1,0-1.79-.06-2.35a6.66,6.66,0,0,0-.23-2.13,12.06,12.06,0,0,1,.89-3.19,8.64,8.64,0,0,1-3.12.6C138.47,103.37,138.52,104.75,138.56,105.07Z"/>
        <path class="cls-27" d="M132.86,86.81h-.05l.53.74.08-.17A7.31,7.31,0,0,0,132.86,86.81Z"/>
        <path class="cls-32" d="M135.06,113.89a4.25,4.25,0,0,0-.61.22c-.32.16-.16.54.16.57s1.33,0,1.33,0,1.12.06,1.3-.18a2.12,2.12,0,0,0,.2-.92,7.89,7.89,0,0,1-1.86.66A.44.44,0,0,1,135.06,113.89Z"/>
        <path class="cls-32" d="M135.92,113.63l.1,0Z"/>
        <path class="cls-32" d="M135.07,113.89l.75-.23Z"/>
        <path class="cls-32" d="M138.58,113.57l.76-.23c-.43.14-1.15.33-1.37.45s-.16.54.16.57,1.33,0,1.33,0,1.12.06,1.3-.18a2.12,2.12,0,0,0,.2-.92,7.83,7.83,0,0,1-1.86.67A.44.44,0,0,1,138.58,113.57Z"/>
        <path class="cls-32" d="M139.43,113.31l.11,0Z"/>
        <path class="cls-14" d="M142.15,96.39A8.36,8.36,0,0,0,141,94c-.95-1.23,0-3,.08-3.52s1.24-1.29,1.27-2.9c0-1.16-.28-1.52-.54-1.67q.09.41.21.87c.32,1.3-.41,2.4-1.59,3.24s-2.29.54-3-1.3c-.5-1.28.42-2.47,1-3.3l-.32,0-.61-.06a10,10,0,0,0-1.72.44,1.19,1.19,0,0,0-.83.63c-.08.19-.29.82-.52,1.55l-1.06-.55-.08.17.35.47s0,.08-.07.09l-.42,0,.94.83c-.29.91-.55,1.72-.6,1.82s-2-2-2-2l-.14.08h0l-.57.35s1.91,3.4,2.82,3.71c.64.21,1.54-1.47,2.08-2.69a8.6,8.6,0,0,1,.26,3.29c-.09.39-.52,1.57-.95,2.91a15.24,15.24,0,0,0-1,4.65,1.06,1.06,0,0,0,0,.2,3.07,3.07,0,0,0,.76.4,9.48,9.48,0,0,0,2.76.6c.3,0,.62,0,.94,0a8.64,8.64,0,0,0,3.12-.6,7.31,7.31,0,0,0,1.17-.62l.11-.07A13.09,13.09,0,0,0,142.15,96.39Z"/>
        <path class="cls-33" d="M138,81.25a3,3,0,0,0-.1.32,1.56,1.56,0,0,0,.28,1.45,2.19,2.19,0,0,1,.76,1.52,1.83,1.83,0,0,1-.45.85c-.59.83-1.51,2-1,3.3.71,1.84,1.82,2.14,3,1.3s1.91-1.94,1.59-3.24q-.12-.47-.21-.87a4.59,4.59,0,0,1-.17-2.18c.19-.76,0-2.45-1.05-3.06a.7.7,0,0,0-.16-.1A2.14,2.14,0,0,0,138,81.25Z"/>
        <path class="cls-34" d="M131.44,84.92a.25.25,0,0,0-.18-.07l-2.64.17c-.07,0-.1,0-.07.09l1.26,1.72c0-.12,0-.2,0-.24l-.94-1.29,2.52-.17,1.79,2.46-2.13.14c0,.17.09.35.13.52l2-.13.42,0c.07,0,.1,0,.07-.09l-.35-.47-.53-.74Zm.79,3.06h-.14a.17.17,0,0,1-.15-.06s0-.06.06-.07h.13a.21.21,0,0,1,.15.06S132.28,88,132.23,88Z"/>
        <path class="cls-34" d="M130.58,87.69v0l-.71-1C130.22,87.64,130.58,87.69,130.58,87.69Z"/>
        <path class="cls-13" d="M129.87,86.65l.71,1c0-.1.06-.36.08-.47s.25-.14.3.13c0,.08,0,.24.1.43l2.13-.14-1.79-2.46-2.52.17.94,1.29v0A.58.58,0,0,0,129.87,86.65Zm.7-.91a1.69,1.69,0,0,1,.79.18l-.42.33-.62-.46A1.37,1.37,0,0,1,130.57,85.74Zm-.24.12.61.46.42-.34a1,1,0,0,1,.36.29c.21.28,0,.53-.41.56a1.48,1.48,0,0,1-1.15-.46A.3.3,0,0,1,130.33,85.86Z"/>
        <path class="cls-14" d="M131.31,86.83c.43,0,.62-.28.41-.56a1,1,0,0,0-.36-.29l-.42.34-.61-.46a.3.3,0,0,0-.17.51A1.48,1.48,0,0,0,131.31,86.83Z"/>
        <path class="cls-34" d="M131.36,85.92a1.69,1.69,0,0,0-.79-.18,1.37,1.37,0,0,0-.25.05l.62.46Z"/>
        <path class="cls-13" d="M132.13,87.85H132c-.06,0-.08,0-.06.07a.17.17,0,0,0,.15.06h.14c.05,0,.08,0,.05-.07A.21.21,0,0,0,132.13,87.85Z"/>
        <path class="cls-27" d="M131.06,87.73c-.05-.19-.09-.35-.1-.43-.05-.27-.29-.27-.3-.13s-.06.37-.08.47v0s-.36,0-.71-1a.58.58,0,0,1-.05-.11v0s0,.12,0,.24a4.24,4.24,0,0,0,0,.71,4.16,4.16,0,0,0,.5,1.29,4.6,4.6,0,0,0,.38.33l.65-.34h0s-.07-.26-.16-.57S131.1,87.9,131.06,87.73Z"/>
        <path class="cls-31" d="M109.16,110.65c0-.07-.07-.15-.11-.22l.12,1.22a6,6,0,0,1,2.31,0l0-1.19a.5.5,0,0,1-.11.18C111.11,110.93,109.49,111.14,109.16,110.65Z"/>
        <path class="cls-13" d="M111.48,111.66a6,6,0,0,0-2.31,0,1.55,1.55,0,0,0-.4.1,4.28,4.28,0,0,0-.34.71c.48-.27.9-.5,1.13-.6a2.43,2.43,0,0,1,2.34.07l-.07-.14A2.34,2.34,0,0,0,111.48,111.66Z"/>
        <path class="cls-31" d="M111.83,109.18a5.63,5.63,0,0,1-.25,1.15c.3.07.41-.36.43-.46a1.81,1.81,0,0,0,.07-.54.37.37,0,0,0,0-.12C112,109.11,111.91,109.14,111.83,109.18Z"/>
        <path class="cls-31" d="M108.68,109.1c-.07,0-.22.12-.23.23h0a1.59,1.59,0,0,0,.09.68c.08.16.21.38.41.23A3.65,3.65,0,0,1,108.68,109.1Z"/>
        <path class="cls-28" d="M111.83,109.18a7.29,7.29,0,0,0,.07-.87c0-1-1-1.28-1.58-1.33H110c-1.27.12-1.38,1.18-1.38,1.79,0,.11,0,.22,0,.33a3.65,3.65,0,0,0,.27,1.14,1.14,1.14,0,0,0,.1.19c0,.07.07.15.11.22.33.49,2,.28,2.26,0a.5.5,0,0,0,.11-.18.58.58,0,0,0,0-.14A5.63,5.63,0,0,0,111.83,109.18Z"/>
        <polygon class="cls-35" points="104.48 129.19 103.49 129.19 103.49 130.81 103.49 133.23 104.48 133.23 104.48 129.19"/>
        <path class="cls-25" d="M104.5,128.86v-.76a.09.09,0,0,0-.09-.09h-.08l0,0,0,0h-.15a.09.09,0,0,0-.09.09v.76h0l-.46.32h1v4l.36-.59v-3.78Z"/>
        <path class="cls-31" d="M103.18,126.77,103,127a.32.32,0,0,0,0,.18c0,.08.68.86.73.94s.19.05.19.05l0,0v-.07a.09.09,0,0,1,.09-.09h.15l0,0,0,0,.24-.11.36-.42a3,3,0,0,0,0-.6l0-.11a5.29,5.29,0,0,1-.31-1,.8.8,0,0,1,0-.15h-.91l0,.15-.09.3A4,4,0,0,1,103.18,126.77Z"/>
        <path class="cls-25" d="M113.05,126.77c0-.52,0-1-.09-1.45l.51-.2a23.36,23.36,0,0,0-.84-2.74c-.23-.68-.43-1.21-.43-1.21,0-.62-.09-1.08-.09-1.08a4.94,4.94,0,0,0,.55-.76,15.13,15.13,0,0,0,1.43-5.11,14.28,14.28,0,0,0-2-2.18l-.14-.11a2.43,2.43,0,0,0-2.34-.07c-.23.1-.65.33-1.13.6-1.05.59-2.35,1.36-2.35,1.36-.83.77-1.55,1.37-2,4,0,.27-.11.82-.17,1.5-.08.88-.16,2-.24,3-.12,1.8-.22,3.43-.22,3.43h.17l0-.15h.91a.8.8,0,0,0,0,.15h.18s.38-1.62.82-3.42l.15-.64-.06.64c-.18,1.8-.29,3.27-.29,3.27l.45.13q0,.48,0,1c0,1,.09,1.92.17,2.66,0,.3.1.78.19,1.38.51,3.14,1.76,9.62,2.07,11.26l-.37.05a3,3,0,0,0-.48,0,.44.44,0,0,0-.43.36.75.75,0,0,0,.47.48c.25.1.68,0,.85.07a5.48,5.48,0,0,0,.91.1s.41,0,.56-.16,0-.33-.09-.55c0-.63.11-8.68.17-11.33,1,4.11,2.45,9.91,2.7,10.89,0,.19,0,.36.09.42s.49,0,.49,0a3.6,3.6,0,0,0,.7-.29c.11-.11.49-.1.65-.25a.71.71,0,0,0,.23-.57.41.41,0,0,0-.45-.25,1.66,1.66,0,0,0-.38.11l-.21,0-.7-8.59s0-.71,0-1.77,0-2.17,0-3.46C113.06,127.16,113.05,127,113.05,126.77Z"/>
        <path class="cls-36" d="M97.68,34.71a.62.62,0,1,0,0-1.24.62.62,0,0,0,0,1.24Z"/>
        <path class="cls-7" d="M162.47,61.32l.16-.53.2.1.06-.79a1.8,1.8,0,0,1-.43-.63c-.27,0-.38-.37-.4-.46a1.32,1.32,0,0,1,0-.67c.06-.11.18-.06.26,0s-.06-.18-.08-.26a1.21,1.21,0,0,1,.69-1.39c.49-.24,1.68-.4,1.67,0,.51-.09.72,1.19.68,1.34a2.06,2.06,0,0,0-.07.25c.07,0,.19-.09.24,0a1.32,1.32,0,0,1,0,.67c0,.09-.13.5-.4.46a1.81,1.81,0,0,1-.29.49l.11.9.12-.07.18.62,2,.28a3.81,3.81,0,1,0-7.08-2,3.75,3.75,0,0,0,.6,2Z"/>
        <path class="cls-31" d="M165,59.47c.27,0,.38-.37.4-.46a1.32,1.32,0,0,0,0-.67c0-.11-.17-.06-.24,0l-.13.43H165l0-.58a4.05,4.05,0,0,1-.46-.54,1,1,0,0,1-.08-.65,2,2,0,0,1-1,.79,3.46,3.46,0,0,1-1,.3l.12.9h-.12s-.11-.34-.2-.64c-.08,0-.2-.1-.26,0a1.32,1.32,0,0,0,0,.67c0,.09.13.5.4.46a1.8,1.8,0,0,0,.43.63l-.06.79.66.35.43,1.09.28-1.09.59-.38-.11-.9A1.81,1.81,0,0,0,165,59.47Z"/>
        <path class="cls-6" d="M163.08,63.47l-.61-2.15h0l-1.82.45A3.83,3.83,0,0,0,163.08,63.47Z"/>
        <path class="cls-6" d="M165.09,61.41l-.45,2.06a3.81,3.81,0,0,0,2.49-1.78l-2-.28Z"/>
        <path class="cls-6" d="M162.48,59h.12l-.12-.9a3.46,3.46,0,0,0,1-.3,2,2,0,0,0,1-.79,1,1,0,0,0,.08.65,4.05,4.05,0,0,0,.46.54l0,.58H165l.13-.43a2.06,2.06,0,0,1,.07-.25c0-.15-.17-1.43-.68-1.34,0-.45-1.18-.29-1.67,0a1.21,1.21,0,0,0-.69,1.39c0,.08.05.17.08.26C162.37,58.63,162.48,59,162.48,59Z"/>
        <path class="cls-7" d="M153.23,55.91a3.81,3.81,0,0,0-3.81,3.82,3.77,3.77,0,0,0,1,2.53c.17-.19.21-.24.69-.43l.15,0c0-.45,0-1,0-1.55,0,0,0,0,0-.08-.19-.85,0-1,.18-2A1.73,1.73,0,0,1,153,56.67h.34a1.7,1.7,0,0,1,1.58,1.47c.12,1,.35,1.16.17,2a.65.65,0,0,1-.05.18,6.19,6.19,0,0,1,.05,1.44l.14,0a2.44,2.44,0,0,1,.83.44,3.76,3.76,0,0,0,1-2.52A3.82,3.82,0,0,0,153.23,55.91Z"/>
        <path class="cls-26" d="M152.41,61.12l.08-.75a1.87,1.87,0,0,1-.81-1.62c0-.15,0-.3,0-.44a.55.55,0,0,1,.14-.12,1.75,1.75,0,0,0,.7-.67,5.23,5.23,0,0,0,1.92,1.15l.07,0v0a1.91,1.91,0,0,1-.72,1.56l.09.84c.05.25.89.52,1.22.62a6.19,6.19,0,0,0-.05-1.44.65.65,0,0,0,.05-.18c.18-.85-.05-1-.17-2a1.7,1.7,0,0,0-1.58-1.47H153a1.73,1.73,0,0,0-1.63,1.47c-.13,1-.37,1.16-.18,2,0,0,0,.05,0,.08,0,.53,0,1.1,0,1.55C151.57,61.66,152.37,61.35,152.41,61.12Z"/>
        <path class="cls-31" d="M153.24,62.54c1.72,0,2-.73,2-.73l-.14,0c-.33-.1-1.17-.37-1.22-.62l-.09-.84a1.91,1.91,0,0,0,.72-1.56v0l-.07,0a5.23,5.23,0,0,1-1.92-1.15,1.75,1.75,0,0,1-.7.67.55.55,0,0,0-.14.12c0,.14,0,.29,0,.44a1.87,1.87,0,0,0,.81,1.62l-.08.75c0,.23-.84.54-1.18.66l-.15,0S151.52,62.54,153.24,62.54Z"/>
        <path class="cls-9" d="M153.24,62.54c-1.72,0-2.16-.71-2.16-.71-.48.19-.52.24-.69.43a3.77,3.77,0,0,0,5.69,0,2.44,2.44,0,0,0-.83-.44S155,62.54,153.24,62.54Z"/>
        <path class="cls-7" d="M153.23,66.58A3.81,3.81,0,0,0,150,72.43l1.83-.45.16-.53.2.11.06-.8a1.76,1.76,0,0,1-.43-.62c-.27,0-.38-.38-.4-.47s-.13-.49,0-.66.18-.06.26,0a2.56,2.56,0,0,0-.09-.26,1.24,1.24,0,0,1,.7-1.4c.49-.23,1.67-.39,1.67.06.5-.09.72,1.18.68,1.34s-.05.15-.08.25.2-.09.25,0,0,.56,0,.66-.13.5-.4.47a2.27,2.27,0,0,1-.29.48l.11.91.12-.08.18.63h0l2,.27a3.8,3.8,0,0,0-3.27-5.77Z"/>
        <path class="cls-31" d="M154.34,70.14c.27,0,.38-.38.4-.47s.13-.49,0-.66-.17-.07-.25,0c-.05.2-.12.43-.12.43h-.08l0-.58a4.55,4.55,0,0,1-.46-.55.9.9,0,0,1-.08-.65,2,2,0,0,1-1,.8,3.48,3.48,0,0,1-1,.3l.13.89h-.13l-.19-.63c-.08,0-.21-.11-.26,0s0,.56,0,.66.13.5.4.47a1.76,1.76,0,0,0,.43.62l-.06.8.65.35.43,1.08.29-1.08.59-.38-.11-.91A2.27,2.27,0,0,0,154.34,70.14Z"/>
        <path class="cls-29" d="M154.46,72.08,154,74.14a3.82,3.82,0,0,0,2.49-1.79l-2-.27Z"/>
        <path class="cls-29" d="M150,72.43a3.8,3.8,0,0,0,2.44,1.7L151.84,72h0Z"/>
        <path class="cls-18" d="M151.84,69.63H152l-.13-.89a3.48,3.48,0,0,0,1-.3,2,2,0,0,0,1-.8.9.9,0,0,0,.08.65,4.55,4.55,0,0,0,.46.55l0,.58h.08s.07-.23.12-.43.06-.2.08-.25-.18-1.43-.68-1.34c0-.45-1.18-.29-1.67-.06a1.24,1.24,0,0,0-.7,1.4,2.56,2.56,0,0,1,.09.26Z"/>
        <path class="cls-7" d="M161.71,72.5l.15,0c0-.46,0-1,0-1.56,0,0,0,0,0-.08-.19-.84,0-1,.18-2a1.71,1.71,0,0,1,1.63-1.47H164a1.68,1.68,0,0,1,1.58,1.47c.12,1,.36,1.16.17,2a.65.65,0,0,1-.05.18,6.3,6.3,0,0,1,.05,1.45l.14,0a2.44,2.44,0,0,1,.83.44,3.76,3.76,0,0,0,1-2.52A3.82,3.82,0,1,0,161,72.93C161.19,72.73,161.23,72.69,161.71,72.5Z"/>
        <path class="cls-6" d="M163,71.78l.08-.74a1.89,1.89,0,0,1-.81-1.62c0-.16,0-.3,0-.45a.87.87,0,0,1,.14-.12,1.68,1.68,0,0,0,.7-.67,5.1,5.1,0,0,0,1.92,1.16l.07,0v0a1.91,1.91,0,0,1-.72,1.56l.1.84c0,.25.88.52,1.21.62a6.3,6.3,0,0,0-.05-1.45.65.65,0,0,0,.05-.18c.19-.84-.05-1-.17-2A1.68,1.68,0,0,0,164,67.34h-.34A1.71,1.71,0,0,0,162,68.81c-.13,1-.37,1.16-.18,2,0,0,0,0,0,.08,0,.53,0,1.1,0,1.56C162.2,72.33,163,72,163,71.78Z"/>
        <path class="cls-31" d="M163.87,73.21c1.72,0,2-.73,2-.73l-.14,0c-.33-.1-1.17-.37-1.21-.62l-.1-.84a1.91,1.91,0,0,0,.72-1.56v0l-.07,0a5.1,5.1,0,0,1-1.92-1.16,1.68,1.68,0,0,1-.7.67.87.87,0,0,0-.14.12c0,.15,0,.29,0,.45a1.89,1.89,0,0,0,.81,1.62l-.08.74c0,.24-.84.55-1.18.67l-.15,0S162.15,73.21,163.87,73.21Z"/>
        <path class="cls-18" d="M163.87,73.21c-1.72,0-2.16-.71-2.16-.71-.48.19-.52.23-.69.43a3.79,3.79,0,0,0,5.69,0,2.44,2.44,0,0,0-.83-.44S165.59,73.21,163.87,73.21Z"/>
      </g>
      <g class="cls-37">
        <rect class="cls-38" x="117.23" y="57.32" width="2.71" height="27.34"/>
      </g>
    </g>
  </g>
</svg>
