<?xml version="1.0" encoding="utf-8"?>
<!-- Generator: Adobe Illustrator 26.1.0, SVG Export Plug-In . SVG Version: 6.00 Build 0)  -->
<svg version="1.1" id="Layer_1" xmlns="http://www.w3.org/2000/svg" xmlns:xlink="http://www.w3.org/1999/xlink" x="0px" y="0px"
	 viewBox="0 0 410.75 91.76" style="enable-background:new 0 0 410.75 91.76;" xml:space="preserve">
<style type="text/css">
	.st0{fill:#1DB1E7;}
	.st1{fill:#E75A25;}
	.st2{fill:#01519C;}
	.st3{fill:#5B5C5D;}
	.st4{fill:#5A5A5C;}
</style>
<g>
	<path class="st0" d="M70.16,83.45c-0.94,0.08-1.88,0.1-2.83,0.09c-2.13-0.03-4.26-0.26-6.36-0.63c-4.42-0.78-8.71-2.2-12.77-4.11
		c-5.74-2.69-10.81-6.75-14.74-11.72c-0.92-1.16-1.77-2.37-2.56-3.62c-3.7-5.91-6.59-13.36-5.63-20.43
		c0.77-5.69,3.85-10.89,8.53-14.2c3.49-2.47,7.72-3.8,11.99-3.8c8.75,0,16.24,5.4,19.32,13.05c0.77-0.18,1.2-1.27,1.46-1.16
		c-0.28-0.23-9.02-16.41-11.03-15.05c-2.96-2.92-9.25-6.16-13.07-7.54c-10.91-3.95-20.6,0.36-23.4,1.6
		c-2.61,1.16-12.69,6.03-17,16.57c-0.12,0.3-0.24,0.6-0.35,0.91C0.62,37.39,0,41.58,0,45.92c0,25.31,20.51,45.83,45.82,45.83
		c0.02,0,0.04,0,0.06,0c0.65,0,1.3-0.02,1.94-0.05c0.21-0.01,0.42-0.02,0.63-0.03c0.57-0.03,1.14-0.08,1.71-0.13
		c0.35-0.03,0.7-0.07,1.06-0.12c0.21-0.02,0.41-0.05,0.62-0.08c5.9-0.92,10.61-2.6,14.05-4.21c2.35-1.15,4.59-2.5,6.7-4.01
		C72.1,83.48,70.74,83.41,70.16,83.45z"/>
	<path class="st1" d="M91.73,45.92c0.31-13.35-6.5-26.55-16.57-35.07c-0.64-0.54-1.3-1.07-1.97-1.57
		c-4.84-3.65-10.39-6.36-16.27-7.82c-0.82-0.2-1.71-0.28-2.51-0.55c0.44,0.15-6.43-1.64-14.95-0.37C33.31,1.44,61.39,6.7,65,11.89
		c3.22,4.62,5.78,9.8,6.24,15.39c1.08,13.31,1.75,11.71,0.22,14.19c-0.5,0.82-0.07,2.87-0.33,3.84c-0.32,1.23-0.92,2.32-1.42,3.49
		c-0.98,2.3-1.31,4.87-2.9,6.81c-1.95,2.37-4.13,3.91-6.8,5.46c-3.51,3.27-8.14,5.35-13.26,5.58c2.93,2.32,10.41,8.45,22.67,6.61
		c12.62-1.89,21.49-13.56,22.25-25.92C91.7,46.86,91.72,46.39,91.73,45.92z"/>
	<path class="st2" d="M64.61,7.87c-5.42-4.95-14.6-8.21-22.18-7.66C18.71,1.96,0,21.76,0,45.92c0,5.88,1.11,11.51,3.13,16.67
		C2.62,61,0.81,55.26,1.85,47.4c0.01-0.06,0.02-0.13,0.03-0.19c1.8-12.36,9.24-20.18,17.14-24.55c8.14-4.51,24.24-7.77,38.18,4.38
		c4.74,3.66,9.43,11.73,9.43,18.81c0,9.85-6.84,18.09-16.03,20.26c7.57-1.68,15.51-5.44,20.04-11.57
		C80.89,40.69,76.96,19.15,64.61,7.87z"/>
</g>
<g>
	<rect x="117.77" class="st3" width="1.3" height="91.83"/>
</g>
<g>
	<path class="st4" d="M194.24,76.09l-5.32-13.36h-30.5l-5.32,13.36h-8.3l24.19-60.2h9.3l24.28,60.2H194.24z M173.67,22.58
		l-13.09,33.48h26.08L173.67,22.58z"/>
	<path class="st4" d="M210.13,76.09V15.9h6.77v60.2H210.13z"/>
	<path class="st4" d="M259.85,76.09v-6.14c-3.34,3.79-9.02,7.22-15.52,7.22c-9.12,0-13.9-4.42-13.9-13.9V32.5h6.77v28.7
		c0,7.67,3.88,9.93,9.75,9.93c5.32,0,10.38-3.07,12.91-6.59V32.5h6.77v43.59H259.85z"/>
	<path class="st4" d="M332.77,76.09v-29.6c0-5.51-2.44-9.02-8.03-9.02c-4.51,0-9.3,3.25-11.55,6.68v31.95h-6.77v-29.6
		c0-5.51-2.35-9.02-8.03-9.02c-4.42,0-9.11,3.25-11.46,6.77v31.86h-6.77V32.5h6.77v6.32c1.81-2.8,7.67-7.4,14.08-7.4
		c6.68,0,10.47,3.61,11.73,8.12c2.44-3.97,8.3-8.12,14.62-8.12c7.94,0,12.18,4.42,12.18,13.18v31.5H332.77z"/>
	<path class="st4" d="M382.5,76.09V47.58c0-7.67-3.88-10.11-9.75-10.11c-5.32,0-10.38,3.25-12.91,6.77v31.86h-6.77V32.5h6.77v6.32
		c3.07-3.61,9.03-7.4,15.52-7.4c9.12,0,13.9,4.6,13.9,14.08v30.59H382.5z"/>
	<path class="st4" d="M401.63,20.59c0-2.53,2.08-4.51,4.51-4.51c2.53,0,4.6,1.99,4.6,4.51s-2.08,4.6-4.6,4.6
		C403.71,25.19,401.63,23.12,401.63,20.59z M402.8,76.09V32.5h6.77v43.59H402.8z"/>
</g>
</svg>
